# Tiled2Unity generated file. Do not modify by hand.
# Wavefront file for 'Level-2_2_mesh_0011.obj'

# Vertices (Count = 144)
v -183 -25 0
v -184 -25 0
v -184 -24 0
v -183 -24 0
v -182 -25 0
v -183 -25 0
v -183 -24 0
v -182 -24 0
v -181 -25 0
v -182 -25 0
v -182 -24 0
v -181 -24 0
v -166 -25 0
v -167 -25 0
v -167 -24 0
v -166 -24 0
v -165 -25 0
v -166 -25 0
v -166 -24 0
v -165 -24 0
v -164 -25 0
v -165 -25 0
v -165 -24 0
v -164 -24 0
v -183 -24 0
v -184 -24 0
v -184 -23 0
v -183 -23 0
v -182 -24 0
v -183 -24 0
v -183 -23 0
v -182 -23 0
v -181 -24 0
v -182 -24 0
v -182 -23 0
v -181 -23 0
v -166 -24 0
v -167 -24 0
v -167 -23 0
v -166 -23 0
v -165 -24 0
v -166 -24 0
v -166 -23 0
v -165 -23 0
v -164 -24 0
v -165 -24 0
v -165 -23 0
v -164 -23 0
v -183 -23 0
v -184 -23 0
v -184 -22 0
v -183 -22 0
v -182 -23 0
v -183 -23 0
v -183 -22 0
v -182 -22 0
v -181 -23 0
v -182 -23 0
v -182 -22 0
v -181 -22 0
v -166 -23 0
v -167 -23 0
v -167 -22 0
v -166 -22 0
v -165 -23 0
v -166 -23 0
v -166 -22 0
v -165 -22 0
v -164 -23 0
v -165 -23 0
v -165 -22 0
v -164 -22 0
v -116 -17 0
v -117 -17 0
v -117 -16 0
v -116 -16 0
v -115 -17 0
v -116 -17 0
v -116 -16 0
v -115 -16 0
v -114 -17 0
v -115 -17 0
v -115 -16 0
v -114 -16 0
v -97 -17 0
v -98 -17 0
v -98 -16 0
v -97 -16 0
v -96 -17 0
v -97 -17 0
v -97 -16 0
v -96 -16 0
v -95 -17 0
v -96 -17 0
v -96 -16 0
v -95 -16 0
v -116 -16 0
v -117 -16 0
v -117 -15 0
v -116 -15 0
v -115 -16 0
v -116 -16 0
v -116 -15 0
v -115 -15 0
v -114 -16 0
v -115 -16 0
v -115 -15 0
v -114 -15 0
v -97 -16 0
v -98 -16 0
v -98 -15 0
v -97 -15 0
v -96 -16 0
v -97 -16 0
v -97 -15 0
v -96 -15 0
v -95 -16 0
v -96 -16 0
v -96 -15 0
v -95 -15 0
v -116 -15 0
v -117 -15 0
v -117 -14 0
v -116 -14 0
v -115 -15 0
v -116 -15 0
v -116 -14 0
v -115 -14 0
v -114 -15 0
v -115 -15 0
v -115 -14 0
v -114 -14 0
v -97 -15 0
v -98 -15 0
v -98 -14 0
v -97 -14 0
v -96 -15 0
v -97 -15 0
v -97 -14 0
v -96 -14 0
v -95 -15 0
v -96 -15 0
v -96 -14 0
v -95 -14 0

# Texture cooridinates (Count = 6)
vt 0.5333334 0.06666666
vt 0.5666667 0.06666666
vt 0.5666667 0.1333333
vt 0.5333334 0.1333333
vt 0.5666667 0.2
vt 0.5333334 0.2

# Normal
vn 0 0 -1

# Mesh description
g Level-2_2_mesh_0011

# Faces
f 1/1/1 2/2/1 3/3/1 4/4/1
f 5/1/1 6/2/1 7/3/1 8/4/1
f 9/1/1 10/2/1 11/3/1 12/4/1
f 13/1/1 14/2/1 15/3/1 16/4/1
f 17/1/1 18/2/1 19/3/1 20/4/1
f 21/1/1 22/2/1 23/3/1 24/4/1
f 25/1/1 26/2/1 27/3/1 28/4/1
f 29/1/1 30/2/1 31/3/1 32/4/1
f 33/1/1 34/2/1 35/3/1 36/4/1
f 37/1/1 38/2/1 39/3/1 40/4/1
f 41/1/1 42/2/1 43/3/1 44/4/1
f 45/1/1 46/2/1 47/3/1 48/4/1
f 49/4/1 50/3/1 51/5/1 52/6/1
f 53/4/1 54/3/1 55/5/1 56/6/1
f 57/4/1 58/3/1 59/5/1 60/6/1
f 61/4/1 62/3/1 63/5/1 64/6/1
f 65/4/1 66/3/1 67/5/1 68/6/1
f 69/4/1 70/3/1 71/5/1 72/6/1
f 73/1/1 74/2/1 75/3/1 76/4/1
f 77/1/1 78/2/1 79/3/1 80/4/1
f 81/1/1 82/2/1 83/3/1 84/4/1
f 85/1/1 86/2/1 87/3/1 88/4/1
f 89/1/1 90/2/1 91/3/1 92/4/1
f 93/1/1 94/2/1 95/3/1 96/4/1
f 97/1/1 98/2/1 99/3/1 100/4/1
f 101/1/1 102/2/1 103/3/1 104/4/1
f 105/1/1 106/2/1 107/3/1 108/4/1
f 109/1/1 110/2/1 111/3/1 112/4/1
f 113/1/1 114/2/1 115/3/1 116/4/1
f 117/1/1 118/2/1 119/3/1 120/4/1
f 121/4/1 122/3/1 123/5/1 124/6/1
f 125/4/1 126/3/1 127/5/1 128/6/1
f 129/4/1 130/3/1 131/5/1 132/6/1
f 133/4/1 134/3/1 135/5/1 136/6/1
f 137/4/1 138/3/1 139/5/1 140/6/1
f 141/4/1 142/3/1 143/5/1 144/6/1

